<?xml version="1.0" encoding="UTF-8"?>
<svg version="1.1" xmlns="http://www.w3.org/2000/svg" width="1200" height="1200">
<path d="M0 0 C0.66 0 1.32 0 2 0 C3.15063477 1.57519531 3.15063477 1.57519531 4.44140625 3.828125 C5.17931396 5.09922119 5.17931396 5.09922119 5.93212891 6.39599609 C6.7391626 7.80872803 6.7391626 7.80872803 7.5625 9.25 C8.74699319 11.29005325 9.93327574 13.32906833 11.12109375 15.3671875 C11.75257324 16.45225586 12.38405273 17.53732422 13.03466797 18.65527344 C15.99123953 23.68695424 19.02897479 28.66817613 22.07073975 33.64868164 C28.77853173 44.63248228 35.38477172 55.6730531 41.9375 66.75 C48.84491734 78.45033387 48.84491734 78.45033387 56 90 C60.86041547 97.6461838 65.44941328 105.45335508 70.0625 113.25 C76.19694127 123.61607671 82.36388158 133.95987206 88.625 144.25 C88.97211029 144.82065186 89.31922058 145.39130371 89.67684937 145.97924805 C92.11558096 149.98757941 94.55738126 153.99403657 97 158 C99.79385614 162.58200264 102.58610009 167.16497869 105.375 171.75 C105.72125427 172.31909088 106.06750854 172.88818176 106.42425537 173.47451782 C112.68686828 183.77405033 118.8396477 194.13706763 124.97698975 204.51159668 C129.73931604 212.55836001 134.54269441 220.57118209 139.5 228.5 C144.88324357 237.11007201 150.08015391 245.82342076 155.25 254.5625 C161.32177955 264.82453505 167.42719428 275.06351279 173.625 285.25 C173.9723822 285.82110504 174.3197644 286.39221008 174.67767334 286.98062134 C177.11612963 290.98849531 179.55765918 294.99449236 182 299 C184.79385613 303.58200262 187.58612202 308.16496536 190.375 312.75 C190.72225128 313.32075256 191.06950256 313.89150513 191.42727661 314.47955322 C197.62064209 324.66566322 203.70592403 334.91407847 209.77484131 345.17468262 C215.09849878 354.17080106 220.49468381 363.11349866 226 372 C231.92350056 381.56152087 237.71159322 391.19431725 243.4375 400.875 C249.44661324 411.03299614 255.49050186 421.1671559 261.625 431.25 C262.14648117 432.10733734 262.14648117 432.10733734 262.67849731 432.98199463 C265.1166783 436.98941122 267.55793709 440.99494816 270 445 C272.79385613 449.58200262 275.58612202 454.16496536 278.375 458.75 C278.72225128 459.32075256 279.06950256 459.89150513 279.42727661 460.47955322 C285.20823297 469.9873818 290.89672601 479.54819118 296.5625 489.125 C304.2121463 502.05417526 312.03318438 514.86685459 319.93066406 527.64648438 C323.41313556 533.29009322 326.88418484 538.94054885 330.33929443 544.60095215 C331.10834685 545.85921038 331.87903886 547.11646807 332.65142822 548.37268066 C333.71968213 550.11049493 334.78186863 551.85203453 335.84375 553.59375 C336.45412109 554.59083984 337.06449219 555.58792969 337.69335938 556.61523438 C339 559 339 559 339 561 C336.76635742 562.53369141 336.76635742 562.53369141 333.60546875 564.3515625 C333.03529022 564.68249908 332.46511169 565.01343567 331.87765503 565.35440063 C329.9847267 566.45130387 328.08609069 567.53793205 326.1875 568.625 C324.86530231 569.38943233 323.54361198 570.15474283 322.22241211 570.92089844 C320.18042575 572.10492173 318.13814974 573.28840864 316.09431458 574.46923828 C309.38657138 578.34534948 302.72180698 582.2913017 296.0625 586.25 C293.8243125 587.57828298 291.58603274 588.90641053 289.34765625 590.234375 C288.27789551 590.86923828 287.20813477 591.50410156 286.10595703 592.15820312 C281.40730496 594.94444988 276.70385237 597.72254457 272 600.5 C263.8287579 605.32562545 255.66321203 610.16080444 247.5 615 C236.56205429 621.48390624 225.61796319 627.95732393 214.66943359 634.42333984 C210.11251506 637.11481413 205.55629881 639.80747679 201 642.5 C199.16666991 643.58333881 197.33333658 644.66667215 195.5 645.75 C194.13875 646.554375 194.13875 646.554375 192.75 647.375 C118.49999999 691.25 118.49999999 691.25 115.7512207 692.87426758 C113.9138054 693.96002039 112.07640311 695.04579521 110.23901367 696.1315918 C105.71823958 698.80308561 101.19725666 701.47422455 96.67578125 704.14453125 C86.61244711 710.08837188 76.55389578 716.04020729 66.5 722 C56.46569685 727.9481785 46.4269345 733.8887298 36.3828125 739.8203125 C32.58483074 742.06323718 28.78814971 744.30834664 24.9921875 746.5546875 C24.00001221 747.14161377 23.00783691 747.72854004 21.9855957 748.33325195 C20.09587208 749.45117665 18.20637097 750.56947761 16.31713867 751.68823242 C14.63716354 752.6818001 12.95492586 753.67155614 11.27001953 754.65673828 C9.82083708 755.51427773 8.38279497 756.39112801 6.96044922 757.29248047 C2.50365804 760.05741835 2.50365804 760.05741835 0.15185547 759.78930664 C-2.60891609 758.77664787 -5.00799567 757.41663258 -7.55078125 755.9375 C-8.63391602 755.31020996 -9.71705078 754.68291992 -10.83300781 754.03662109 C-11.99295029 753.35793835 -13.15277868 752.67906059 -14.3125 752 C-15.50470519 751.30649795 -16.69708893 750.61330274 -17.88964844 749.92041016 C-25.02719537 745.76700934 -32.13340558 741.56334568 -39.19921875 737.2890625 C-43.96677067 734.40863964 -48.76567619 731.58130819 -53.5625 728.75 C-54.49739258 728.19812012 -55.43228516 727.64624023 -56.39550781 727.07763672 C-58.30932919 725.94810941 -60.22322961 724.81871601 -62.13720703 723.68945312 C-66.75937109 720.96172199 -71.379619 718.2307499 -76 715.5 C-81.44105818 712.28456666 -86.88226857 709.06939224 -92.32421875 705.85546875 C-102.96554957 699.57023827 -113.60101139 693.27518174 -124.23236084 686.9730835 C-134.59295994 680.83166666 -144.96004974 674.70131144 -155.33056641 668.57666016 C-159.88748494 665.88518587 -164.44370119 663.19252321 -169 660.5 C-170.83333009 659.41666119 -172.66666342 658.33332785 -174.5 657.25 C-185.5 650.75 -196.5 644.25 -207.5 637.75 C-208.40709717 637.2139917 -209.31419434 636.6779834 -210.2487793 636.12573242 C-212.0861946 635.03997961 -213.92359689 633.95420479 -215.76098633 632.8684082 C-220.28176042 630.19691439 -224.80274334 627.52577545 -229.32421875 624.85546875 C-239.96554957 618.57023827 -250.60101139 612.27518174 -261.23236084 605.9730835 C-268.92274681 601.41447975 -276.61546375 596.85986631 -284.3125 592.3125 C-285.19921387 591.78857666 -286.08592773 591.26465332 -286.99951172 590.72485352 C-291.51554607 588.05696387 -296.03260533 585.39082371 -300.55078125 582.7265625 C-312.73390724 575.53948652 -324.88213489 568.29658643 -337 561 C-335.75052431 557.71162188 -334.3539948 554.70694453 -332.55859375 551.68359375 C-331.82068604 550.43666748 -331.82068604 550.43666748 -331.06787109 549.16455078 C-330.52984863 548.26462402 -329.99182617 547.36469727 -329.4375 546.4375 C-328.86596191 545.47569824 -328.29442383 544.51389648 -327.70556641 543.52294922 C-322.79091549 535.27406039 -317.80253717 527.0700311 -312.8059082 518.87063599 C-306.94308673 509.24824219 -301.17283431 499.57383565 -295.4375 489.875 C-289.08525433 479.13427924 -282.62808627 468.47050549 -276.05615234 457.86230469 C-270.79163671 449.3412933 -265.66149197 440.74576968 -260.5625 432.125 C-254.55338676 421.96700386 -248.50949814 411.8328441 -242.375 401.75 C-241.85351883 400.89266266 -241.85351883 400.89266266 -241.32150269 400.01800537 C-238.53662426 395.44075371 -235.7475642 390.86605443 -232.95825195 386.29150391 C-230.51182881 382.27888858 -228.06716557 378.26520814 -225.625 374.25 C-225.27841339 373.68024445 -224.93182678 373.11048889 -224.57473755 372.52346802 C-218.34047445 362.26805553 -212.2077531 351.95384135 -206.09240723 341.62719727 C-199.40822044 330.34220658 -192.63265304 319.11672205 -185.78955078 307.92724609 C-182.45720526 302.47638351 -179.13211648 297.02112137 -175.8125 291.5625 C-175.45993134 290.98288513 -175.10736267 290.40327026 -174.74411011 289.80609131 C-168.4944103 279.52489401 -162.35111783 269.18244137 -156.22598267 258.82669067 C-150.27511683 248.77070217 -144.21004965 238.79572445 -138.05615234 228.86230469 C-132.79163671 220.3412933 -127.66149197 211.74576968 -122.5625 203.125 C-116.55338676 192.96700386 -110.50949814 182.8328441 -104.375 172.75 C-104.02734589 172.17844177 -103.67969177 171.60688354 -103.32150269 171.01800537 C-100.53662426 166.44075371 -97.7475642 161.86605443 -94.95825195 157.29150391 C-92.51182881 153.27888858 -90.06716557 149.26520814 -87.625 145.25 C-87.10512009 144.39536667 -87.10512009 144.39536667 -86.57473755 143.52346802 C-80.34047445 133.26805553 -74.2077531 122.95384135 -68.09240723 112.62719727 C-61.40822044 101.34220658 -54.63265304 90.11672205 -47.78955078 78.92724609 C-44.45720518 73.47638337 -41.13216734 68.02109054 -37.8125 62.5625 C-37.46192535 61.9862085 -37.11135071 61.40991699 -36.75015259 60.81616211 C-31.2040382 51.69321388 -25.73645973 42.52532023 -20.29840088 33.33761597 C-8.63868723 13.6426673 -8.63868723 13.6426673 -3.9375 6 C-3.35657593 5.0394873 -3.35657593 5.0394873 -2.76391602 4.05957031 C-1.89852806 2.66995502 -0.95831688 1.32723613 0 0 Z " fill="#61678F" transform="translate(599,50)"/>
<path d="M0 0 C4.28494647 1.29332226 7.88670981 2.93397434 11.71875 5.23828125 C12.80454346 5.88692139 13.89033691 6.53556152 15.0090332 7.20385742 C16.17272104 7.90668491 17.33637585 8.60956708 18.5 9.3125 C19.71211364 10.03878531 20.9246024 10.76444492 22.13745117 11.48950195 C24.59355533 12.95840065 27.04809308 14.42986283 29.50146484 15.90332031 C34.42350821 18.85671435 39.3676628 21.77248237 44.3125 24.6875 C46.10034407 25.74334795 47.88810485 26.79933694 49.67578125 27.85546875 C50.55186035 28.37286621 51.42793945 28.89026367 52.33056641 29.42333984 C56.88748494 32.11481413 61.44370119 34.80747679 66 37.5 C67.83333009 38.58333881 69.66666342 39.66667215 71.5 40.75 C141.16666667 81.91666667 210.83333333 123.08333333 280.5 164.25 C281.8617334 165.0546167 281.8617334 165.0546167 283.25097656 165.87548828 C285.08115842 166.95701849 286.91123685 168.03872374 288.74121094 169.12060547 C293.37192202 171.85798381 298.0044862 174.59213545 302.640625 177.3203125 C303.5697168 177.8683252 304.49880859 178.41633789 305.45605469 178.98095703 C307.30275922 180.06761452 309.1523317 181.14941433 311.00488281 182.22607422 C315.45518795 184.82755702 319.79323183 187.50092048 324.03125 190.4375 C324.82885742 190.9742334 325.62646484 191.5109668 326.44824219 192.06396484 C327.93556975 193.07265941 329.40208387 194.11307305 330.84082031 195.18994141 C332.9516581 196.60074083 334.50873506 197.4911801 337 198 C340.7436713 196.99522509 343.75011371 195.07052193 347 193 C348.67032162 192.03896177 350.34220656 191.08063566 352.015625 190.125 C353.76244815 189.08674362 355.50716428 188.04493591 357.25 187 C359.19265383 185.84365843 361.13536375 184.68741109 363.078125 183.53125 C364.06103516 182.94472656 365.04394531 182.35820313 366.05664062 181.75390625 C370.69645863 178.98910428 375.34855099 176.24517213 380 173.5 C381.83339821 172.41677646 383.6667314 171.33344288 385.5 170.25 C389.16666667 168.08333333 392.83333333 165.91666667 396.5 163.75 C397.86040405 162.9461084 397.86040405 162.9461084 399.24829102 162.12597656 C401.08728211 161.03932226 402.92631225 159.95273404 404.76538086 158.86621094 C409.26246815 156.20922062 413.75893996 153.55120217 418.25390625 150.890625 C426.14472355 146.22166643 434.0385274 141.55825951 441.953125 136.9296875 C453.50246804 130.17464772 465.03888674 123.4042851 476.5 116.5 C487.36803522 109.95299083 498.30215754 103.52435555 509.25405884 97.11920166 C509.85471161 96.76791199 510.45536438 96.41662231 511.07421875 96.0546875 C511.66915131 95.70678162 512.26408386 95.35887573 512.87704468 95.00042725 C518.2612875 91.85033286 523.63240517 88.67835222 529 85.5 C534.96663009 81.96693676 540.93993333 78.44572896 546.92578125 74.9453125 C547.52643402 74.59402283 548.12708679 74.24273315 548.74594116 73.88079834 C549.35313995 73.52568176 549.96033875 73.17056519 550.5859375 72.8046875 C560.92438869 66.75807889 571.24062855 60.68034425 581.5 54.5 C592.36803522 47.95299083 603.30215754 41.52435555 614.25405884 35.11920166 C614.85471161 34.76791199 615.45536438 34.41662231 616.07421875 34.0546875 C616.66915131 33.70678162 617.26408386 33.35887573 617.87704468 33.00042725 C623.26129322 29.85032952 628.63187889 26.67747062 634 23.5 C635.73436623 22.47654764 637.46874144 21.45311049 639.203125 20.4296875 C643.04629093 18.16021995 646.88151231 15.87787839 650.7130127 13.58880615 C653.39336269 11.9896445 656.07768558 10.39723095 658.76269531 8.8059082 C660.08213273 8.02186412 661.39986182 7.23493763 662.71582031 6.44506836 C664.55104434 5.34398069 666.39191274 4.25298192 668.234375 3.1640625 C669.29881836 2.52936035 670.36326172 1.8946582 671.45996094 1.24072266 C672.29817383 0.83128418 673.13638672 0.4218457 674 0 C674.66 0.33 675.32 0.66 676 1 C669.2372469 10.71791858 662.45721101 20.41996675 655.5 30 C650.32803775 37.12238227 645.26408533 44.31466906 640.23266602 51.53686523 C636.35817799 57.088202 632.42051683 62.5886333 628.4375 68.0625 C623.98968443 74.17580311 619.67654457 80.36528733 615.4375 86.625 C610.92771166 93.28117989 606.24402438 99.75913755 601.37646484 106.15722656 C597.48978229 111.28739141 593.82525013 116.54295748 590.20996094 121.86669922 C586.77166394 126.91631501 583.22168238 131.87469999 579.625 136.8125 C575.11364411 143.00875564 570.73396731 149.27800446 566.4375 155.625 C561.92784772 162.28126841 557.24401918 168.75914439 552.37646484 175.15722656 C548.48978229 180.28739141 544.82525013 185.54295748 541.20996094 190.86669922 C537.77166394 195.91631501 534.22168238 200.87469999 530.625 205.8125 C526.11364411 212.00875564 521.73396731 218.27800446 517.4375 224.625 C512.92784772 231.28126841 508.24401918 237.75914439 503.37646484 244.15722656 C499.48978229 249.28739141 495.82525013 254.54295748 492.20996094 259.86669922 C488.77166166 264.91631836 485.22158851 269.87462896 481.625 274.8125 C477.09806838 281.03240858 472.69432303 287.32174293 468.375 293.6875 C464.06629601 300.03463392 459.65628941 306.28161545 455.08886719 312.44482422 C451.18113666 317.72435747 447.39279734 323.08245089 443.61865234 328.45800781 C439.98047079 333.63205092 436.28230647 338.75942932 432.5625 343.875 C428.05887862 350.07522799 423.67892801 356.34715397 419.375 362.6875 C415.066153 369.0345408 410.65629367 375.2816097 406.08886719 381.44482422 C402.18113666 386.72435747 398.39279734 392.08245089 394.61865234 397.45800781 C390.98047079 402.63205092 387.28230647 407.75942932 383.5625 412.875 C379.05887862 419.07522799 374.67892801 425.34715397 370.375 431.6875 C366.07383728 438.02322166 361.67289933 444.26004374 357.11303711 450.41186523 C353.48662698 455.31067664 349.94872983 460.26805652 346.4375 465.25 C345.66780884 466.34175537 345.66780884 466.34175537 344.88256836 467.45556641 C342.89161532 470.28617496 340.9198227 473.12026596 339 476 C335.53046485 474.84348828 335.09866072 474.09844223 333.1015625 471.16015625 C332.54654053 470.35376709 331.99151855 469.54737793 331.41967773 468.71655273 C330.82743408 467.84071533 330.23519043 466.96487793 329.625 466.0625 C328.35932816 464.22049104 327.09237453 462.37936224 325.82421875 460.5390625 C325.18403809 459.60739258 324.54385742 458.67572266 323.88427734 457.71582031 C321.12932778 453.74509487 318.28684841 449.8407409 315.4375 445.9375 C310.97307833 439.8012949 306.63676036 433.59103128 302.375 427.3125 C298.0667321 420.9662776 293.65663202 414.72068231 289.09106445 408.55737305 C283.59625797 401.13117937 278.30852251 393.55984359 273 386 C266.92641769 377.35789813 260.82639116 368.73849819 254.625 360.1875 C248.20423727 351.33027853 241.93570932 342.37019403 235.67578125 333.39892578 C228.53810665 323.18115325 221.31282852 313.03095843 213.99584961 302.94091797 C209.33551967 296.49879892 204.77810256 289.98769232 200.2331543 283.46386719 C196.3585303 277.91226336 192.42058329 272.41168318 188.4375 266.9375 C183.97411462 260.80051443 179.6367868 254.59107022 175.375 248.3125 C171.0667321 241.9662776 166.65663202 235.72068231 162.09106445 229.55737305 C156.59625797 222.13117937 151.30852251 214.55984359 146 207 C139.9264198 198.35790113 133.82655845 189.73837452 127.625 181.1875 C122.41376776 174.00145213 117.30724949 166.74723058 112.2331543 159.46386719 C108.3585303 153.91226336 104.42058329 148.41168318 100.4375 142.9375 C95.97411462 136.80051443 91.6367868 130.59107022 87.375 124.3125 C83.0667321 117.9662776 78.65663202 111.72068231 74.09106445 105.55737305 C68.59625797 98.13117937 63.30852251 90.55984359 58 83 C51.92641769 74.35789813 45.82639116 65.73849819 39.625 57.1875 C33.80350199 49.1569436 28.10471235 41.04464943 22.4296875 32.91015625 C19.15733296 28.21990473 15.86350806 23.54511383 12.5625 18.875 C11.58984063 17.49739803 10.61718425 16.11979396 9.64453125 14.7421875 C7.99882252 12.41209541 6.35013343 10.08422877 4.69921875 7.7578125 C4.05597656 6.84773437 3.41273438 5.93765625 2.75 5 C1.93789063 3.8553125 1.93789063 3.8553125 1.109375 2.6875 C0 1 0 1 0 0 Z " fill="#8A92B2" transform="translate(262,674)"/>
<path d="M0 0 C0.33 0 0.66 0 1 0 C1 134.31 1 268.62 1 407 C-35.12521739 423.93369565 -35.12521739 423.93369565 -46.45263672 428.88208008 C-60.22208879 434.90303975 -73.87940702 441.15050025 -87.5 447.5 C-101.00725229 453.79592308 -114.56246953 459.95813947 -128.19873047 465.96923828 C-140.36667725 471.3373708 -152.44574526 476.88158685 -164.5 482.5 C-178.00736029 488.7956966 -191.56246463 494.95813731 -205.19873047 500.96923828 C-217.36668073 506.33737233 -229.44567744 511.88172711 -241.5 517.5 C-255.80504755 524.16674499 -270.16531782 530.68384073 -284.60888672 537.04467773 C-292.57449376 540.5579785 -300.50380154 544.13827414 -308.3984375 547.80859375 C-309.68717773 548.40661804 -309.68717773 548.40661804 -311.00195312 549.01672363 C-315.17323034 550.95347279 -319.34013106 552.89885156 -323.50097656 554.85791016 C-324.99270275 555.55270047 -326.48455773 556.24721437 -327.9765625 556.94140625 C-329.00346695 557.43065834 -329.00346695 557.43065834 -330.05111694 557.92979431 C-331.67412056 558.68034437 -333.33457209 559.34898847 -335 560 C-335.66 559.67 -336.32 559.34 -337 559 C-329.29345173 546.11893366 -321.55783413 533.25745399 -313.75 520.4375 C-307.15909936 509.61543206 -300.67617609 498.73238382 -294.22570801 487.82614136 C-288.27492672 477.77034232 -282.20994086 467.79554885 -276.05615234 457.86230469 C-270.79163671 449.3412933 -265.66149197 440.74576968 -260.5625 432.125 C-254.55338676 421.96700386 -248.50949814 411.8328441 -242.375 401.75 C-241.85351883 400.89266266 -241.85351883 400.89266266 -241.32150269 400.01800537 C-238.53662426 395.44075371 -235.7475642 390.86605443 -232.95825195 386.29150391 C-230.51182881 382.27888858 -228.06716557 378.26520814 -225.625 374.25 C-225.27841339 373.68024445 -224.93182678 373.11048889 -224.57473755 372.52346802 C-218.34047445 362.26805553 -212.2077531 351.95384135 -206.09240723 341.62719727 C-199.40822044 330.34220658 -192.63265304 319.11672205 -185.78955078 307.92724609 C-182.45720526 302.47638351 -179.13211648 297.02112137 -175.8125 291.5625 C-175.45993134 290.98288513 -175.10736267 290.40327026 -174.74411011 289.80609131 C-168.4944103 279.52489401 -162.35111783 269.18244137 -156.22598267 258.82669067 C-150.27511683 248.77070217 -144.21004965 238.79572445 -138.05615234 228.86230469 C-132.79163671 220.3412933 -127.66149197 211.74576968 -122.5625 203.125 C-116.55338676 192.96700386 -110.50949814 182.8328441 -104.375 172.75 C-104.02734589 172.17844177 -103.67969177 171.60688354 -103.32150269 171.01800537 C-100.53662426 166.44075371 -97.7475642 161.86605443 -94.95825195 157.29150391 C-92.51182881 153.27888858 -90.06716557 149.26520814 -87.625 145.25 C-87.10512009 144.39536667 -87.10512009 144.39536667 -86.57473755 143.52346802 C-80.34047445 133.26805553 -74.2077531 122.95384135 -68.09240723 112.62719727 C-61.40822044 101.34220658 -54.63265304 90.11672205 -47.78955078 78.92724609 C-44.45720518 73.47638337 -41.13216734 68.02109054 -37.8125 62.5625 C-37.46192535 61.9862085 -37.11135071 61.40991699 -36.75015259 60.81616211 C-30.78392734 51.00216256 -24.91246428 41.13363522 -19.0625 31.25 C-8.84793028 13.99932158 -8.84793028 13.99932158 -3.875 6 C-3.47933838 5.3596582 -3.08367676 4.71931641 -2.67602539 4.05957031 C-1.81353332 2.68737864 -0.91220268 1.33965997 0 0 Z " fill="#8991B1" transform="translate(599,50)"/>
<path d="M0 0 C0 116.49 0 232.98 0 353 C-3.98450484 351.40619806 -7.28649165 349.77223399 -10.953125 347.61328125 C-11.80550751 347.11304695 -11.80550751 347.11304695 -12.67510986 346.60270691 C-14.53549917 345.50948342 -16.39279148 344.41111702 -18.25 343.3125 C-19.55913303 342.54147687 -20.8683794 341.77064616 -22.17773438 341 C-31.3275561 335.6080807 -40.43797132 330.15145442 -49.53540039 324.67163086 C-57.55312708 319.84903853 -65.61179887 315.09956074 -73.6875 310.375 C-74.30332947 310.0147171 -74.91915894 309.6544342 -75.5536499 309.28323364 C-77.9916985 307.85703654 -80.42979007 306.43091295 -82.86798096 305.00495911 C-97.60393998 296.38376329 -112.27594325 287.65328997 -126.9621582 278.94775391 C-136.74638658 273.14850426 -146.53719791 267.36045752 -156.33056641 261.57666016 C-160.88748494 258.88518587 -165.44370119 256.19252321 -170 253.5 C-171.83333009 252.41666119 -173.66666342 251.33332785 -175.5 250.25 C-186.5 243.75 -197.5 237.25 -208.5 230.75 C-209.40709717 230.2139917 -210.31419434 229.6779834 -211.2487793 229.12573242 C-213.0861946 228.03997961 -214.92359689 226.95420479 -216.76098633 225.8684082 C-221.28176042 223.19691439 -225.80274334 220.52577545 -230.32421875 217.85546875 C-240.96554957 211.57023827 -251.60101139 205.27518174 -262.23236084 198.9730835 C-269.92274681 194.41447975 -277.61546375 189.85986631 -285.3125 185.3125 C-286.19921387 184.78857666 -287.08592773 184.26465332 -287.99951172 183.72485352 C-292.51554607 181.05696387 -297.03260533 178.39082371 -301.55078125 175.7265625 C-313.73390724 168.53948652 -325.88213489 161.29658643 -338 154 C-334.68742676 151.27184759 -331.10453749 149.51757394 -327.21875 147.76953125 C-326.2100032 147.30901871 -326.2100032 147.30901871 -325.18087769 146.83920288 C-322.95612176 145.82537683 -320.72814284 144.81885807 -318.5 143.8125 C-316.92126275 143.09508069 -315.34265167 142.37738365 -313.76416016 141.65942383 C-302.25916199 136.43554568 -290.71038014 131.3119852 -279.15283203 126.20571899 C-265.991282 120.38628936 -252.93118318 114.36168646 -239.88787842 108.28256226 C-227.25035689 102.39542901 -214.55808784 96.65418707 -201.80126953 91.03076172 C-189.63332275 85.6626292 -177.55425474 80.11841315 -165.5 74.5 C-151.99263971 68.2043034 -138.43753537 62.04186269 -124.80126953 56.03076172 C-111.75739871 50.27619784 -98.81895573 44.31010829 -85.89730835 38.28677368 C-73.02260711 32.28844857 -60.09150188 26.43769933 -47.09429932 20.70996094 C-34.98127589 15.37024898 -22.964309 9.84709575 -11.0090332 4.1628418 C-9.84847412 3.614104 -8.68791504 3.06536621 -7.4921875 2.5 C-6.47495605 2.0153125 -5.45772461 1.530625 -4.40966797 1.03125 C-2 0 -2 0 0 0 Z " fill="#61678F" transform="translate(600,457)"/>
<path d="M0 0 C4.66036744 1.55345581 8.98804533 3.28050683 13.4140625 5.3515625 C14.1282132 5.68222717 14.84236389 6.01289185 15.57815552 6.35357666 C17.12033971 7.06764172 18.66193671 7.78297604 20.20300293 8.49945068 C33.66245787 14.75432212 47.17014295 20.88643797 60.75 26.875 C74.61483162 32.99349155 88.37671533 39.3156648 102.1126709 45.7177124 C114.02350155 51.26631042 125.97660992 56.69988245 138 62 C151.78277745 68.07568582 165.46155166 74.3550479 179.11376953 80.71826172 C191.0242352 86.26667067 202.97698582 91.70004816 215 97 C228.77837446 103.0737449 242.45293763 109.35077962 256.10067749 115.71221924 C269.02106224 121.73142391 281.99848352 127.60224406 295.03845215 133.35742188 C309.44738769 139.71837538 323.74531624 146.30092537 338 153 C334.48241973 155.93786167 330.90353217 158.35335496 326.94140625 160.65234375 C326.36463135 160.98865311 325.78785645 161.32496246 325.19360352 161.67146301 C323.31865271 162.76376912 321.44057149 163.85056996 319.5625 164.9375 C318.25029766 165.70103013 316.93837012 166.4650327 315.62670898 167.22949219 C313.64066787 168.38689767 311.65446195 169.54400861 309.66737366 170.69961548 C303.95061989 174.02425621 298.25282175 177.3803181 292.5625 180.75 C291.67981445 181.27223145 290.79712891 181.79446289 289.88769531 182.33251953 C288.13010738 183.37238799 286.37261908 184.41242485 284.61523438 185.45263672 C281.08443374 187.54171574 277.55181291 189.62770713 274.01928711 191.71386719 C264.84132905 197.13438395 255.66918171 202.564652 246.5 208 C235.56202683 214.48386001 224.61796327 220.95732388 213.66943359 227.42333984 C209.11251506 230.11481413 204.55629881 232.80747679 200 235.5 C198.16666991 236.58333881 196.33333658 237.66667215 194.5 238.75 C193.13875 239.554375 193.13875 239.554375 191.75 240.375 C117.5 284.25 117.5 284.25 114.7512207 285.87426758 C112.9138054 286.96002039 111.07640311 288.04579521 109.23901367 289.1315918 C104.71823958 291.80308561 100.19725666 294.47422455 95.67578125 297.14453125 C85.61244711 303.08837188 75.55389578 309.04020729 65.5 315 C56.34637963 320.42612348 47.19121856 325.84960185 38.02685547 331.25756836 C33.35517542 334.01466074 28.68811224 336.77918215 24.02734375 339.5546875 C23.03968018 340.14161377 22.0520166 340.72854004 21.03442383 341.33325195 C19.15662716 342.44934105 17.2800687 343.56751728 15.4050293 344.68823242 C14.55207275 345.19459229 13.69911621 345.70095215 12.8203125 346.22265625 C12.08055176 346.66359619 11.34079102 347.10453613 10.57861328 347.55883789 C7.1172184 349.49337813 3.54668301 351.2266585 0 353 C0 236.51 0 120.02 0 0 Z " fill="#454A74" transform="translate(600,457)"/>
<path d="M0 0 C0.66 0.33 1.32 0.66 2 1 C-4.7627531 10.71791858 -11.54278899 20.41996675 -18.5 30 C-23.67196225 37.12238227 -28.73591467 44.31466906 -33.76733398 51.53686523 C-37.64182201 57.088202 -41.57948317 62.5886333 -45.5625 68.0625 C-50.01031557 74.17580311 -54.32345543 80.36528733 -58.5625 86.625 C-63.07228834 93.28117989 -67.75597562 99.75913755 -72.62353516 106.15722656 C-76.51021771 111.28739141 -80.17474987 116.54295748 -83.79003906 121.86669922 C-87.22833606 126.91631501 -90.77831762 131.87469999 -94.375 136.8125 C-98.88635589 143.00875564 -103.26603269 149.27800446 -107.5625 155.625 C-112.07215228 162.28126841 -116.75598082 168.75914439 -121.62353516 175.15722656 C-125.51021771 180.28739141 -129.17474987 185.54295748 -132.79003906 190.86669922 C-136.22833606 195.91631501 -139.77831762 200.87469999 -143.375 205.8125 C-147.88635589 212.00875564 -152.26603269 218.27800446 -156.5625 224.625 C-161.07215228 231.28126841 -165.75598082 237.75914439 -170.62353516 244.15722656 C-174.51021771 249.28739141 -178.17474987 254.54295748 -181.79003906 259.86669922 C-185.22833834 264.91631836 -188.77841149 269.87462896 -192.375 274.8125 C-196.90193162 281.03240858 -201.30567697 287.32174293 -205.625 293.6875 C-209.93370399 300.03463392 -214.34371059 306.28161545 -218.91113281 312.44482422 C-222.81886334 317.72435747 -226.60720266 323.08245089 -230.38134766 328.45800781 C-234.01952921 333.63205092 -237.71769353 338.75942932 -241.4375 343.875 C-245.94112138 350.07522799 -250.32107199 356.34715397 -254.625 362.6875 C-258.933847 369.0345408 -263.34370633 375.2816097 -267.91113281 381.44482422 C-271.81886334 386.72435747 -275.60720266 392.08245089 -279.38134766 397.45800781 C-283.01952921 402.63205092 -286.71769353 407.75942932 -290.4375 412.875 C-294.94112138 419.07522799 -299.32107199 425.34715397 -303.625 431.6875 C-307.92634513 438.02349035 -312.32415872 444.26331067 -316.88916016 450.41186523 C-321.04417517 456.01756015 -325.05329699 461.72190504 -329.02954102 467.45556641 C-329.50447998 468.13538574 -329.97941895 468.81520508 -330.46875 469.515625 C-331.09426758 470.41716309 -331.09426758 470.41716309 -331.73242188 471.33691406 C-333 473 -333 473 -336 476 C-336 384.26 -336 292.52 -336 198 C-327.42 193.05 -318.84 188.1 -310 183 C-305.40921619 180.30256389 -300.82317051 177.60153631 -296.25 174.875 C-293.99095871 173.53242876 -291.73184306 172.18998261 -289.47265625 170.84765625 C-288.38484863 170.20070801 -287.29704102 169.55375977 -286.17626953 168.88720703 C-281.35162028 166.02060144 -276.51994976 163.16593001 -271.6875 160.3125 C-269.89061652 159.25131645 -268.09374144 158.19011866 -266.296875 157.12890625 C-265.41966797 156.61086426 -264.54246094 156.09282227 -263.63867188 155.55908203 C-261.0136083 154.00804058 -258.38948065 152.45542759 -255.765625 150.90234375 C-247.86836578 146.22936192 -239.96802691 141.56209257 -232.046875 136.9296875 C-220.49753196 130.17464772 -208.96111326 123.4042851 -197.5 116.5 C-186.63196478 109.95299083 -175.69784246 103.52435555 -164.74594116 97.11920166 C-164.14528839 96.76791199 -163.54463562 96.41662231 -162.92578125 96.0546875 C-162.33084869 95.70678162 -161.73591614 95.35887573 -161.12295532 95.00042725 C-155.7387125 91.85033286 -150.36759483 88.67835222 -145 85.5 C-139.03336991 81.96693676 -133.06006667 78.44572896 -127.07421875 74.9453125 C-126.47356598 74.59402283 -125.87291321 74.24273315 -125.25405884 73.88079834 C-124.64686005 73.52568176 -124.03966125 73.17056519 -123.4140625 72.8046875 C-113.07561131 66.75807889 -102.75937145 60.68034425 -92.5 54.5 C-81.63196478 47.95299083 -70.69784246 41.52435555 -59.74594116 35.11920166 C-59.14528839 34.76791199 -58.54463562 34.41662231 -57.92578125 34.0546875 C-57.33084869 33.70678162 -56.73591614 33.35887573 -56.12295532 33.00042725 C-50.73870678 29.85032952 -45.36812111 26.67747062 -40 23.5 C-38.26563377 22.47654764 -36.53125856 21.45311049 -34.796875 20.4296875 C-30.95370907 18.16021995 -27.11848769 15.87787839 -23.2869873 13.58880615 C-20.60663731 11.9896445 -17.92231442 10.39723095 -15.23730469 8.8059082 C-13.91786727 8.02186412 -12.60013818 7.23493763 -11.28417969 6.44506836 C-9.44895566 5.34398069 -7.60808726 4.25298192 -5.765625 3.1640625 C-4.70118164 2.52936035 -3.63673828 1.8946582 -2.54003906 1.24072266 C-1.70182617 0.83128418 -0.86361328 0.4218457 0 0 Z " fill="#61678F" transform="translate(936,674)"/>
</svg>
