<?xml version="1.0" encoding="UTF-8"?>
<svg version="1.1" xmlns="http://www.w3.org/2000/svg" width="600" height="600">
<path d="M0 0 C1.10569336 0.20399414 2.21138672 0.40798828 3.35058594 0.61816406 C61.95528822 11.70030843 119.24554069 38.59733834 161 82 C163.54895668 84.56998768 166.11703497 87.11250783 168.7265625 89.62109375 C175.73439533 96.39408771 181.87890202 103.5417503 187.73583984 111.32568359 C188.90973969 112.88045477 190.10444126 114.41946015 191.30078125 115.95703125 C220.88514904 154.36941643 239.91092099 200.32222886 248 248 C248.22647217 249.25272705 248.22647217 249.25272705 248.45751953 250.53076172 C253.77146373 280.94119749 253.72141576 315.65915882 248 346 C247.79600586 347.10569336 247.59201172 348.21138672 247.38183594 349.35058594 C236.29969157 407.95528822 209.40266166 465.24554069 166 507 C163.43001232 509.54895668 160.88749217 512.11703497 158.37890625 514.7265625 C151.60591229 521.73439533 144.4582497 527.87890202 136.67431641 533.73583984 C135.11954523 534.90973969 133.58053985 536.10444126 132.04296875 537.30078125 C93.63058357 566.88514904 47.67777114 585.91092099 0 594 C-1.25272705 594.22647217 -1.25272705 594.22647217 -2.53076172 594.45751953 C-32.94119749 599.77146373 -67.65915882 599.72141576 -98 594 C-99.65854004 593.69400879 -99.65854004 593.69400879 -101.35058594 593.38183594 C-159.95528822 582.29969157 -217.24554069 555.40266166 -259 512 C-261.54895668 509.43001232 -264.11703497 506.88749217 -266.7265625 504.37890625 C-273.73439533 497.60591229 -279.87890202 490.4582497 -285.73583984 482.67431641 C-286.90973969 481.11954523 -288.10444126 479.58053985 -289.30078125 478.04296875 C-318.88514904 439.63058357 -337.91092099 393.67777114 -346 346 C-346.22647217 344.74727295 -346.22647217 344.74727295 -346.45751953 343.46923828 C-351.77146373 313.05880251 -351.72141576 278.34084118 -346 248 C-345.79600586 246.89430664 -345.59201172 245.78861328 -345.38183594 244.64941406 C-334.29969157 186.04471178 -307.40266166 128.75445931 -264 87 C-261.43001232 84.45104332 -258.88749217 81.88296503 -256.37890625 79.2734375 C-249.60591229 72.26560467 -242.4582497 66.12109798 -234.67431641 60.26416016 C-233.11954523 59.09026031 -231.58053985 57.89555874 -230.04296875 56.69921875 C-191.63058357 27.11485096 -145.67777114 8.08907901 -98 0 C-96.74727295 -0.22647217 -96.74727295 -0.22647217 -95.46923828 -0.45751953 C-65.05880251 -5.77146373 -30.34084118 -5.72141576 0 0 Z " fill="#2875C7" transform="translate(349,3)"/>
<path d="M0 0 C1.62711914 -0.02416992 1.62711914 -0.02416992 3.28710938 -0.04882812 C4.33576172 -0.04947266 5.38441406 -0.05011719 6.46484375 -0.05078125 C7.41866943 -0.05376221 8.37249512 -0.05674316 9.35522461 -0.05981445 C13.27483123 0.47922424 15.9506577 1.8486926 18.36279297 5.02441406 C19.36917488 8.31534612 19.30794819 11.51626763 19.2578125 14.921875 C19.2549826 15.64868469 19.25215271 16.37549438 19.24923706 17.12432861 C19.23807523 19.43722251 19.21297851 21.74972388 19.1875 24.0625 C19.17746501 25.63410898 19.16834006 27.20572404 19.16015625 28.77734375 C19.13814904 32.62254622 19.10364715 36.46745664 19.0625 40.3125 C20.92418823 40.52616211 20.92418823 40.52616211 22.82348633 40.74414062 C37.98854358 42.48460289 52.75988176 51.34779321 62.35546875 63.00390625 C69.28169385 72.3709521 74.35545069 82.20570646 74.69140625 94.0234375 C73.64373407 97.83670393 72.34687719 99.05498059 69.0625 101.3125 C64.73933832 102.05905006 60.50192321 102.00976621 56.125 101.9375 C54.37413086 101.96650391 54.37413086 101.96650391 52.58789062 101.99609375 C43.06128579 101.9418111 43.06128579 101.9418111 39.37890625 99.08203125 C37.19003544 96.46498335 35.9836357 94.58958204 34.9375 91.375 C32.32407843 84.1747569 28.70550269 78.32844814 22.0625 74.3125 C7.6783467 67.97682092 -9.06887901 66.57715129 -23.9375 72.3125 C-31.03774636 75.51809646 -35.65953007 79.16195164 -38.9375 86.3125 C-41.25114027 93.25342082 -41.45602439 104.29283544 -38.3125 111.0625 C-33.52032806 118.56911898 -25.32621478 122.64464253 -16.8984375 124.65625 C-15.03897091 125.05361181 -13.17680471 125.43849414 -11.3125 125.8125 C-9.81058105 126.12767578 -9.81058105 126.12767578 -8.27832031 126.44921875 C-1.43632389 127.86524811 5.43099855 129.10650784 12.3125 130.3125 C30.95499943 133.61320463 48.60860449 137.78244514 64.0625 149.3125 C64.87589844 149.9003125 65.68929687 150.488125 66.52734375 151.09375 C75.72228112 159.14109118 81.25020522 171.82770943 82.27685547 183.81542969 C83.50458968 205.02731107 79.31639992 222.68946062 65.4375 239.125 C53.87519271 251.1661145 38.31253237 258.1845595 22.0625 261.3125 C21.0725 261.3125 20.0825 261.3125 19.0625 261.3125 C19.08344727 262.2504541 19.10439453 263.1884082 19.12597656 264.15478516 C19.19439373 267.65488625 19.24441586 271.15427066 19.28222656 274.65478516 C19.30226791 276.16596736 19.32950905 277.67707272 19.36425781 279.18798828 C19.41311109 281.36770643 19.43554224 283.54639431 19.453125 285.7265625 C19.4845459 287.69036865 19.4845459 287.69036865 19.51660156 289.69384766 C18.98530211 293.9276759 17.78142981 296.05899054 15.0625 299.3125 C10.07618355 300.97460548 4.90870571 300.58090198 -0.3125 300.625 C-1.44945312 300.65400391 -2.58640625 300.68300781 -3.7578125 300.71289062 C-12.11997753 300.77668649 -12.11997753 300.77668649 -16.1640625 298.48046875 C-19.34828941 294.58785655 -19.0712188 290.80205883 -19.03515625 286.01953125 C-19.0337413 285.31350266 -19.03232635 284.60747406 -19.03086853 283.88005066 C-19.02527764 281.62832374 -19.01272688 279.37669679 -19 277.125 C-18.99498382 275.59700665 -18.99042112 274.06901173 -18.98632812 272.54101562 C-18.9753112 268.79813865 -18.95805287 265.05533627 -18.9375 261.3125 C-19.50960205 261.25916504 -20.0817041 261.20583008 -20.67114258 261.15087891 C-40.38482668 259.16290993 -58.34385615 250.72388235 -71.25 235.5 C-78.58525436 225.77966294 -84.74172181 213.15096662 -85.4375 200.8125 C-84.86239669 196.7867768 -83.83045441 195.12036752 -80.9375 192.3125 C-76.6286906 190.1580953 -70.92017136 191.03824896 -66.1875 191 C-65.00671875 190.97099609 -63.8259375 190.94199219 -62.609375 190.91210938 C-57.64199428 190.87574904 -53.8689442 190.91415897 -49.265625 192.8828125 C-46.33522383 195.94104996 -45.53489656 198.42217415 -44.4375 202.5 C-41.32631474 212.95801981 -36.61666634 220.78359934 -26.9375 226.3125 C-10.75693948 232.69547891 6.79226172 233.77027499 23.0625 227.3125 C31.5286633 223.18658498 38.15485772 216.74928049 41.3125 207.75 C42.89520845 200.32125132 43.48403622 191.21413146 40.2890625 184.15234375 C32.58730566 172.59970848 19.32738846 169.59837026 6.56347656 166.80371094 C1.69493864 165.84749283 -3.2185276 165.16782995 -8.125 164.4375 C-31.05213031 160.95671644 -54.46632352 155.14046771 -70.1171875 136.7890625 C-80.24888083 123.00474153 -81.60697283 105.38251705 -79.50390625 88.91796875 C-75.94512014 72.40608537 -66.57752115 59.67583526 -52.66015625 50.38525391 C-42.60695245 44.12479791 -30.89606433 39.18140277 -18.9375 39.3125 C-18.95321045 38.36930908 -18.9689209 37.42611816 -18.98510742 36.4543457 C-19.03636007 32.94126852 -19.07390991 29.42859102 -19.10229492 25.9152832 C-19.11734353 24.39731562 -19.13778738 22.87939124 -19.16381836 21.36157227 C-19.20037653 19.17453323 -19.21726523 16.98807104 -19.23046875 14.80078125 C-19.2461792 13.48634033 -19.26188965 12.17189941 -19.27807617 10.81762695 C-18.91308968 7.06127497 -18.28542158 5.23705762 -15.9375 2.3125 C-11.29939944 -0.93803496 -5.42363907 -0.01605577 0 0 Z " fill="#FCFDFE" transform="translate(299.9375,152.6875)"/>
<path d="M0 0 C3.01864304 1.09673154 5.98788423 2.27744922 8.95703125 3.50195312 C10.59841064 4.17097656 10.59841064 4.17097656 12.27294922 4.85351562 C33.39792863 13.65229894 52.83894605 24.62836095 70.45703125 39.25195312 C71.27945313 39.89003906 72.101875 40.528125 72.94921875 41.18554688 C85.97142426 51.40623933 97.47666059 63.3762542 107.30029297 76.68505859 C108.37119816 78.13568534 109.46211719 79.57147936 110.5546875 81.00585938 C119.81323905 93.35673033 127.35216569 106.31389613 133.62255859 120.39941406 C134.33906498 121.99006663 135.09185879 123.56428568 135.8515625 125.13476562 C141.36240511 136.57632456 144.9749261 148.85936212 148.14453125 161.12695312 C148.33466797 161.84294678 148.52480469 162.55894043 148.72070312 163.29663086 C152.5759336 178.84012758 153.95753308 194.43107051 153.84814453 210.40600586 C153.83205568 213.18523339 153.84811347 215.96300323 153.8671875 218.7421875 C153.88789752 235.54328504 151.98599911 252.04143097 147.70703125 268.31445312 C147.44881592 269.31210693 147.19060059 270.30976074 146.92456055 271.33764648 C136.82613422 309.37535475 117.80293895 342.9790655 90.45703125 371.25195312 C89.95880859 371.77595703 89.46058594 372.29996094 88.94726562 372.83984375 C81.03822871 381.14285511 72.68251634 388.44537997 63.45703125 395.25195312 C62.14605469 396.22068359 62.14605469 396.22068359 60.80859375 397.20898438 C45.22774222 408.37778248 28.48365803 417.73661516 10.45703125 424.25195312 C9.16000722 424.80198739 7.86720117 425.36226398 6.58203125 425.93945312 C0.88771014 428.33106799 -4.32492461 429.95588265 -10.54296875 429.25195312 C-12.90794314 427.38486808 -14.2032759 425.93133882 -15.54296875 423.25195312 C-15.83982526 419.3625187 -15.82108225 415.46388172 -15.85546875 411.56445312 C-15.88447266 410.48744141 -15.91347656 409.41042969 -15.94335938 408.30078125 C-16.02649485 397.87047691 -16.02649485 397.87047691 -13.18237305 393.74389648 C-9.2565131 390.1711593 -4.12849338 388.40095195 0.70703125 386.37695312 C3.07370878 385.33482113 5.43830368 384.28794655 7.80078125 383.23632812 C8.94675781 382.72908203 10.09273438 382.22183594 11.2734375 381.69921875 C26.72262389 374.67599966 40.67754607 365.15681399 53.015625 353.53710938 C55.08637264 351.59888959 57.2023884 349.79797981 59.39453125 348.00195312 C76.48809824 332.99296747 88.52921183 312.42338741 98.45703125 292.25195312 C98.9571875 291.27226562 99.45734375 290.29257812 99.97265625 289.28320312 C111.39954885 265.85084108 114.68465887 239.49499225 114.70703125 213.75195312 C114.70803833 212.9479306 114.70904541 212.14390808 114.71008301 211.31552124 C114.70020326 199.6627927 114.18321405 188.62269848 111.45703125 177.25195312 C111.14941284 175.81507747 110.84481576 174.37755225 110.54296875 172.93945312 C105.52938819 149.66118849 96.17305088 127.75521524 82.45703125 108.25195312 C81.82539063 107.31738281 81.19375 106.3828125 80.54296875 105.41992188 C75.19024434 97.72125035 68.93788034 90.9944703 62.45703125 84.25195312 C61.96154785 83.72923828 61.46606445 83.20652344 60.95556641 82.66796875 C43.54560228 64.34411083 21.03880557 49.12652985 -2.79296875 40.50195312 C-8.54240697 38.40602808 -11.95032524 36.63801148 -14.63525391 30.9296875 C-16.20745355 26.29174084 -15.91190754 21.60698333 -15.91796875 16.75195312 C-15.94246094 15.71941406 -15.96695312 14.686875 -15.9921875 13.62304688 C-16.02151198 6.04755586 -16.02151198 6.04755586 -13.64453125 2.09570312 C-9.38876534 -1.63797998 -5.24609751 -1.54320687 0 0 Z " fill="#FBFDFE" transform="translate(371.54296875,88.748046875)"/>
<path d="M0 0 C2.75329021 1.79562405 4.52627461 3.05254922 6 6 C6.29685651 9.88943443 6.2781135 13.78807141 6.3125 17.6875 C6.34150391 18.76451172 6.37050781 19.84152344 6.40039062 20.95117188 C6.452561 27.4965476 6.33072173 31.92420786 2 37 C-0.8648933 38.71960509 -3.87973001 39.8269077 -7 41 C-8.77770688 41.78805906 -10.54837504 42.59214527 -12.3125 43.41015625 C-13.23458252 43.83707764 -14.15666504 44.26399902 -15.10668945 44.70385742 C-30.2692049 51.82388092 -44.2951906 60.00246866 -57 71 C-57.76957031 71.66 -58.53914063 72.32 -59.33203125 73 C-70.70951911 82.9989554 -81.43124975 93.45888063 -90 106 C-90.62720947 106.89332031 -90.62720947 106.89332031 -91.26708984 107.8046875 C-108.24250048 132.08181617 -118.04484261 158.9367255 -123 188 C-123.1757959 188.90878906 -123.3515918 189.81757813 -123.53271484 190.75390625 C-124.07973317 194.55388309 -124.18001803 198.29444607 -124.203125 202.125 C-124.21378242 203.28809441 -124.21378242 203.28809441 -124.22465515 204.47468567 C-124.46293568 238.19379963 -120.34266301 268.46915388 -105 299 C-104.68530762 299.63357422 -104.37061523 300.26714844 -104.04638672 300.91992188 C-92.48020053 323.98912558 -75.53738092 345.31212865 -55 361 C-54.04222656 361.78503906 -53.08445312 362.57007813 -52.09765625 363.37890625 C-39.14699288 373.81456059 -24.41280124 382.30866867 -8.84765625 388.19140625 C-1.76691426 390.92929315 2.51237059 393.02474118 6 400 C6.32295365 403.90978317 6.32448928 407.82853103 6.375 411.75 C6.43107422 413.37808594 6.43107422 413.37808594 6.48828125 415.0390625 C6.58723687 424.03302886 6.58723687 424.03302886 3.6875 427.72265625 C0.84123195 430.13453746 -0.72896013 430.82338322 -4.45703125 430.515625 C-27.23964711 425.89610842 -50.33354649 412.47986488 -69 399 C-70.51013672 397.9171875 -70.51013672 397.9171875 -72.05078125 396.8125 C-80.67680918 390.40880649 -88.45661707 383.21839052 -96.17529297 375.75732422 C-97.77145826 374.22010215 -99.38327889 372.70270338 -101.00390625 371.19140625 C-118.1581514 354.78625478 -132.27575256 333.5904439 -142 312 C-142.33483398 311.26168945 -142.66966797 310.52337891 -143.01464844 309.76269531 C-150.54469318 292.98448294 -155.94702403 275.9016993 -159.61376953 257.89013672 C-159.94713329 256.25871941 -160.29809265 254.63091578 -160.65234375 253.00390625 C-162.57114027 244.02617945 -163.15616149 235.0906172 -163.16796875 225.92578125 C-163.17129715 224.99887985 -163.17462555 224.07197845 -163.17805481 223.11698914 C-163.18308222 221.1682484 -163.18546444 219.21949917 -163.18530273 217.27075195 C-163.18748161 214.33725298 -163.20566178 211.40413548 -163.22460938 208.47070312 C-163.33200651 173.85015539 -154.16335705 138.19339464 -137 108 C-136.66178223 107.39510742 -136.32356445 106.79021484 -135.97509766 106.16699219 C-121.33807817 80.18951787 -101.87982803 56.03233168 -78 38 C-77.36255859 37.51321777 -76.72511719 37.02643555 -76.06835938 36.52490234 C-57.16066342 22.16081477 -36.38019667 11.03934323 -14.25 2.4375 C-13.61884277 2.18581055 -12.98768555 1.93412109 -12.33740234 1.67480469 C-8.10498051 0.09799784 -4.49748966 -0.37569829 0 0 Z " fill="#FBFDFE" transform="translate(238,88)"/>
<path d="M0 0 C1.06992187 0.00644531 2.13984375 0.01289063 3.2421875 0.01953125 C4.35335938 0.03628906 5.46453125 0.05304688 6.609375 0.0703125 C7.73601562 0.07933594 8.86265625 0.08835938 10.0234375 0.09765625 C12.80229865 0.12120592 15.5807289 0.1540957 18.359375 0.1953125 C15.3661987 1.91100731 13.17200685 2.45036821 9.734375 2.50390625 C8.86296875 2.52904297 7.9915625 2.55417969 7.09375 2.58007812 C5.27090446 2.615233 3.44797943 2.64648343 1.625 2.67382812 C0.75359375 2.70025391 -0.1178125 2.72667969 -1.015625 2.75390625 C-2.20285156 2.77408813 -2.20285156 2.77408813 -3.4140625 2.79467773 C-6.34395341 3.32186534 -7.62941531 3.97870388 -9.640625 6.1953125 C-10.17856642 9.45477541 -10.17856642 9.45477541 -9.99609375 13.19921875 C-9.98806229 13.87830795 -9.98003082 14.55739716 -9.97175598 15.25706482 C-9.94277216 17.42477748 -9.88652645 19.59071031 -9.828125 21.7578125 C-9.78562383 23.92825368 -9.74875479 26.09865303 -9.71662903 28.26927185 C-9.68500502 30.23643113 -9.63814587 32.20332774 -9.59057617 34.17016602 C-9.640625 37.1953125 -9.640625 37.1953125 -10.640625 39.1953125 C-11.300625 39.1953125 -11.960625 39.1953125 -12.640625 39.1953125 C-12.7150089 34.72960801 -12.76933671 30.26423566 -12.80541992 25.7980957 C-12.82046853 24.28012812 -12.84091238 22.76220374 -12.86694336 21.24438477 C-12.90350153 19.05734573 -12.92039023 16.87088354 -12.93359375 14.68359375 C-12.9493042 13.36915283 -12.96501465 12.05471191 -12.98120117 10.70043945 C-12.61621468 6.94408747 -11.98854658 5.11987012 -9.640625 2.1953125 C-6.50278091 -0.02823162 -3.77990411 -0.04021175 0 0 Z " fill="#D8F1FE" transform="translate(293.640625,152.8046875)"/>
<path d="M0 0 C0.99 0.33 1.98 0.66 3 1 C2.67 1.66 2.34 2.32 2 3 C0.0632904 3.57812227 -1.90130827 4.06455722 -3.875 4.5 C-7.56806347 5.31870323 -9.82512982 5.88341988 -13 8 C-16.1875 7.625 -16.1875 7.625 -19 7 C-18.96970703 7.57331055 -18.93941406 8.14662109 -18.90820312 8.73730469 C-17.80991939 29.79900736 -17.80991939 29.79900736 -18 40 C-19.32 40.66 -20.64 41.32 -22 42 C-21.84152588 41.49243164 -21.68305176 40.98486328 -21.51977539 40.46191406 C-20.82830633 37.18677364 -20.7656084 33.94303931 -20.68359375 30.609375 C-20.66281265 29.90476135 -20.64203156 29.20014771 -20.62062073 28.47418213 C-20.55546163 26.23288319 -20.49639752 23.99147136 -20.4375 21.75 C-20.39428274 20.22655103 -20.35066743 18.70311329 -20.30664062 17.1796875 C-20.19981509 13.45324409 -20.09845361 9.72667506 -20 6 C-19.4652002 5.85377197 -18.93040039 5.70754395 -18.37939453 5.55688477 C-15.96066661 4.89424479 -13.54282904 4.22841194 -11.125 3.5625 C-10.28324219 3.33240234 -9.44148438 3.10230469 -8.57421875 2.86523438 C-7.36572266 2.53168945 -7.36572266 2.53168945 -6.1328125 2.19140625 C-5.38918457 1.98717041 -4.64555664 1.78293457 -3.87939453 1.57250977 C-1.9363705 1.03783733 -1.9363705 1.03783733 0 0 Z " fill="#3573B5" transform="translate(339,408)"/>
<path d="M0 0 C2.125 0.9375 2.125 0.9375 4 2 C3.01 2 2.02 2 1 2 C1 12.56 1 23.12 1 34 C0.34 33.67 -0.32 33.34 -1 33 C-1.33 22.44 -1.66 11.88 -2 1 C-1.34 0.67 -0.68 0.34 0 0 Z " fill="#D7F0FE" transform="translate(318,412)"/>
<path d="M0 0 C0 0.99 0 1.98 0 3 C-1.53125 4.31640625 -1.53125 4.31640625 -3.5 5.5625 C-5.43301969 6.75177256 -5.43301969 6.75177256 -7 8 C-7 8.66 -7 9.32 -7 10 C-8.32 10 -9.64 10 -11 10 C-11.185625 10.598125 -11.37125 11.19625 -11.5625 11.8125 C-13.32113296 14.48868058 -15.11804386 15.03308381 -18.046875 16.140625 C-21.38222894 17.60818073 -24.10071238 19.810742 -27 22 C-27.66 21.34 -28.32 20.68 -29 20 C-28.16339844 19.47792969 -27.32679688 18.95585937 -26.46484375 18.41796875 C-17.34027815 12.6671365 -8.62968938 6.46622383 0 0 Z " fill="#3A7ABC" transform="translate(443,477)"/>
<path d="M0 0 C0.33 0 0.66 0 1 0 C0.97679687 0.99 0.95359375 1.98 0.9296875 3 C0.81730741 9.93859261 0.8225962 16.33170085 3 23 C3.99 23 4.98 23 6 23 C6 24.32 6 25.64 6 27 C6.99 27 7.98 27 9 27 C9 27.99 9 28.98 9 30 C9.66 30 10.32 30 11 30 C10.67 30.66 10.34 31.32 10 32 C8.71560633 30.99628143 7.44808958 29.97095632 6.1875 28.9375 C5.47980469 28.36902344 4.77210938 27.80054688 4.04296875 27.21484375 C-0.99400765 21.75410643 -1.44543264 16.20943314 -1.25 9.125 C-1.24484375 8.35414063 -1.2396875 7.58328125 -1.234375 6.7890625 C-1.15502232 1.15502232 -1.15502232 1.15502232 0 0 Z " fill="#3E7BB7" transform="translate(260,241)"/>
<path d="M0 0 C4.3343236 3.75641379 5.74560465 7.39657742 6.30078125 13.078125 C6.32674285 20.10506554 5.87354786 26.50156378 3 33 C2.34 33.66 1.68 34.32 1 35 C1.144375 34.47535156 1.28875 33.95070313 1.4375 33.41015625 C2.81075146 27.6787387 3.24654224 22.11960658 3.3125 16.25 C3.33860352 15.16924194 3.33860352 15.16924194 3.36523438 14.06665039 C3.36079519 9.26290128 2.35253414 6.14641901 0 2 C0 1.34 0 0.68 0 0 Z " fill="#477FBB" transform="translate(337,333)"/>
<path d="M0 0 C0.66 0.66 1.32 1.32 2 2 C0.60770997 3.73202093 -0.78900556 5.46048484 -2.1875 7.1875 C-2.96480469 8.15042969 -3.74210937 9.11335938 -4.54296875 10.10546875 C-6.90759149 12.89113719 -9.38284381 15.45263464 -12 18 C-12.763125 18.763125 -13.52625 19.52625 -14.3125 20.3125 C-14.869375 20.869375 -15.42625 21.42625 -16 22 C-16.66 21.67 -17.32 21.34 -18 21 C-17.20335937 20.154375 -16.40671875 19.30875 -15.5859375 18.4375 C-10.03760383 12.51071193 -4.69137363 6.64611265 0 0 Z " fill="#E3F6FB" transform="translate(449,416)"/>
<path d="M0 0 C0.99245476 0.00212242 0.99245476 0.00212242 2.00495911 0.00428772 C4.11402953 0.00987629 6.22299302 0.0224266 8.33203125 0.03515625 C9.76367034 0.04017273 11.1953111 0.04473538 12.62695312 0.04882812 C16.13284713 0.05984195 19.63867875 0.0770987 23.14453125 0.09765625 C23.14453125 0.75765625 23.14453125 1.41765625 23.14453125 2.09765625 C22.32774902 2.07147217 21.5109668 2.04528809 20.66943359 2.01831055 C16.95299671 1.91409412 13.23686764 1.84924826 9.51953125 1.78515625 C8.23433594 1.74326172 6.94914062 1.70136719 5.625 1.65820312 C-2.0947778 1.31108137 -2.0947778 1.31108137 -8.75390625 4.6171875 C-9.44742188 5.43574219 -10.1409375 6.25429688 -10.85546875 7.09765625 C-10.52546875 5.11765625 -10.19546875 3.13765625 -9.85546875 1.09765625 C-6.37764292 -0.06161903 -3.66743618 -0.01547441 0 0 Z " fill="#3C77BA" transform="translate(225.85546875,342.90234375)"/>
<path d="M0 0 C0.33 0.99 0.66 1.98 1 3 C0.20335937 3.54527344 0.20335937 3.54527344 -0.609375 4.1015625 C-5.55063147 7.60123348 -5.55063147 7.60123348 -9.25 12.3125 C-11 15 -11 15 -13.25 15.875 C-13.8275 15.91625 -14.405 15.9575 -15 16 C-15 16.66 -15 17.32 -15 18 C-15.99 17.67 -16.98 17.34 -18 17 C-15.75417636 14.72500399 -13.50262096 12.45576416 -11.25 10.1875 C-10.61578125 9.54490234 -9.9815625 8.90230469 -9.328125 8.24023438 C-8.4 7.30727539 -8.4 7.30727539 -7.453125 6.35546875 C-6.88754883 5.78465576 -6.32197266 5.21384277 -5.73925781 4.62573242 C-3.92139169 2.92652264 -2.01504683 1.45724172 0 0 Z " fill="#3675B8" transform="translate(182,157)"/>
<path d="M0 0 C-0.33 0.33 -0.66 0.66 -1 1 C-1.15888092 3.28988781 -1.25138073 5.58443441 -1.31640625 7.87890625 C-1.33718735 8.5655687 -1.35796844 9.25223114 -1.37937927 9.95970154 C-1.44494143 12.16052935 -1.50379015 14.36147975 -1.5625 16.5625 C-1.60567892 18.05144514 -1.649293 19.54037773 -1.69335938 21.02929688 C-1.8006293 24.68606553 -1.90187772 28.34297318 -2 32 C-2.33 32 -2.66 32 -3 32 C-3 21.44 -3 10.88 -3 0 C-4.65 0 -6.3 0 -8 0 C-8 -0.33 -8 -0.66 -8 -1 C-3.375 -2.25 -3.375 -2.25 0 0 Z " fill="#BCE2FC" transform="translate(284,414)"/>
<path d="M0 0 C0.99 0.33 1.98 0.66 3 1 C2.67 1.66 2.34 2.32 2 3 C0.0632904 3.57812227 -1.90130827 4.06455722 -3.875 4.5 C-7.56806347 5.31870323 -9.82512982 5.88341988 -13 8 C-13 7.34 -13 6.68 -13 6 C-14.32 5.67 -15.64 5.34 -17 5 C-15.94039063 4.72285156 -14.88078125 4.44570313 -13.7890625 4.16015625 C-12.40101131 3.794386 -11.01299213 3.42849428 -9.625 3.0625 C-8.92632812 2.88009766 -8.22765625 2.69769531 -7.5078125 2.50976562 C-3.66044902 1.51487491 -3.66044902 1.51487491 0 0 Z " fill="#3B77BB" transform="translate(339,408)"/>
<path d="M0 0 C1.97909398 -0.02686553 3.95828971 -0.04633375 5.9375 -0.0625 C7.03964844 -0.07410156 8.14179688 -0.08570313 9.27734375 -0.09765625 C12 0 12 0 13 1 C14.51469448 1.23192865 16.03754562 1.41215238 17.5625 1.5625 C18.38878906 1.64628906 19.21507812 1.73007812 20.06640625 1.81640625 C20.70449219 1.87699219 21.34257812 1.93757813 22 2 C21.34 2.66 20.68 3.32 20 4 C13.24604958 3.57117775 6.63896986 2.27815681 0 1 C0 0.67 0 0.34 0 0 Z " fill="#3F7DB9" transform="translate(290,279)"/>
<path d="M0 0 C0.66 0.33 1.32 0.66 2 1 C2 9.91 2 18.82 2 28 C1.01 27.67 0.02 27.34 -1 27 C-0.67 18.09 -0.34 9.18 0 0 Z " fill="#3976B4" transform="translate(355,93)"/>
<path d="M0 0 C0.33 0 0.66 0 1 0 C1.10826289 2.4178712 1.18739789 4.83087556 1.25 7.25 C1.28351562 7.93191406 1.31703125 8.61382812 1.3515625 9.31640625 C1.390625 11.328125 1.390625 11.328125 1 15 C-0.32 16.32 -1.64 17.64 -3 19 C-2.01 12.73 -1.02 6.46 0 0 Z " fill="#3C78B9" transform="translate(524,328)"/>
<path d="M0 0 C0 3 0 3 -2.625 5.69921875 C-3.74254026 6.70367458 -4.86791033 7.69947129 -6 8.6875 C-6.57234375 9.19861328 -7.1446875 9.70972656 -7.734375 10.23632812 C-9.14967213 11.4983014 -10.57400269 12.75013033 -12 14 C-12.66 13.67 -13.32 13.34 -14 13 C-12.04468135 11.0177733 -10.08594334 9.03914884 -8.125 7.0625 C-7.56941406 6.49853516 -7.01382813 5.93457031 -6.44140625 5.35351562 C-2.2265625 1.11328125 -2.2265625 1.11328125 0 0 Z " fill="#DDF5FC" transform="translate(151,134)"/>
<path d="M0 0 C0 0.99 0 1.98 0 3 C-0.99 3.33 -1.98 3.66 -3 4 C-3.268125 4.598125 -3.53625 5.19625 -3.8125 5.8125 C-5.50798425 8.93576046 -8.01439213 10.18267347 -11 12 C-11.66 11.67 -12.32 11.34 -13 11 C-8.71 7.37 -4.42 3.74 0 0 Z " fill="#DFF4FE" transform="translate(165,122)"/>
<path d="M0 0 C0.66 0.33 1.32 0.66 2 1 C1.37691903 2.8964649 0.75145015 4.79214535 0.125 6.6875 C-0.22304688 7.74324219 -0.57109375 8.79898437 -0.9296875 9.88671875 C-1.87331366 12.63149994 -2.89491289 15.31692815 -4 18 C-5.10844919 14.67465243 -4.84454356 12.37817425 -4 9 C-3.34 9 -2.68 9 -2 9 C-1.855625 8.071875 -1.71125 7.14375 -1.5625 6.1875 C-1 3 -1 3 0 0 Z " fill="#4A81BA" transform="translate(477,359)"/>
<path d="M0 0 C1.051875 0.495 1.051875 0.495 2.125 1 C5.26003116 2.09044562 7.70563182 2.15322643 11 2 C11 2.99 11 3.98 11 5 C12.32 5 13.64 5 15 5 C15 5.66 15 6.32 15 7 C9.77999416 6.47799942 5.41286212 4.79095098 1 2 C0.67 1.34 0.34 0.68 0 0 Z " fill="#4780BE" transform="translate(269,376)"/>
<path d="M0 0 C4.26726736 2.13363368 4.53698003 2.38983067 6.125 6.5 C7.22816463 9.30805541 7.84266036 10.84266036 10 13 C9.01 14.485 9.01 14.485 8 16 C5.36 10.72 2.72 5.44 0 0 Z " fill="#DFF5FD" transform="translate(462,209)"/>
<path d="M0 0 C1.37478516 0.01740234 1.37478516 0.01740234 2.77734375 0.03515625 C3.69644531 0.04417969 4.61554688 0.05320312 5.5625 0.0625 C6.27277344 0.07410156 6.98304688 0.08570313 7.71484375 0.09765625 C5.03934083 2.77315917 2.76604481 2.92975014 -0.91015625 3.72265625 C-2.09867187 3.98304688 -3.2871875 4.2434375 -4.51171875 4.51171875 C-5.42695313 4.70507812 -6.3421875 4.8984375 -7.28515625 5.09765625 C-7.28515625 4.43765625 -7.28515625 3.77765625 -7.28515625 3.09765625 C-6.64578125 2.78828125 -6.00640625 2.47890625 -5.34765625 2.16015625 C-1.25884046 0.0537966 -1.25884046 0.0537966 0 0 Z " fill="#E3F6FD" transform="translate(331.28515625,407.90234375)"/>
<path d="M0 0 C0.97582031 0.00902344 1.95164063 0.01804687 2.95703125 0.02734375 C3.69308594 0.03894531 4.42914063 0.05054687 5.1875 0.0625 C5.1875 0.7225 5.1875 1.3825 5.1875 2.0625 C4.61902344 2.03929688 4.05054688 2.01609375 3.46484375 1.9921875 C-1.73808648 1.87058312 -5.88562243 2.38526508 -10.8125 4.0625 C-10.8125 3.0725 -10.8125 2.0825 -10.8125 1.0625 C-7.13862505 0.20951624 -3.7677607 -0.04539471 0 0 Z " fill="#397AB7" transform="translate(234.8125,86.9375)"/>
<path d="M0 0 C0.99 0.495 0.99 0.495 2 1 C6.47673252 1.17218202 10.60598974 0.85736786 15 0 C14.67 0.99 14.34 1.98 14 3 C9.71 3 5.42 3 1 3 C0.67 2.01 0.34 1.02 0 0 Z " fill="#4C80C1" transform="translate(359,516)"/>
<path d="M0 0 C1.65 0 3.3 0 5 0 C1.37464179 3.17218843 -2.51150278 4.42902597 -7 6 C-7.33 5.01 -7.66 4.02 -8 3 C-7.34 2.34 -6.68 1.68 -6 1 C-6 1.66 -6 2.32 -6 3 C-4.02 2.67 -2.04 2.34 0 2 C0 1.34 0 0.68 0 0 Z " fill="#3C7CB9" transform="translate(368,475)"/>
<path d="M0 0 C0 3.61537605 -0.89229241 5.11165997 -3 8 C-3.99 8 -4.98 8 -6 8 C-6.33 7.01 -6.66 6.02 -7 5 C-4.69 3.35 -2.38 1.7 0 0 Z " fill="#3D77BF" transform="translate(358,397)"/>
<path d="M0 0 C2 1 2 1 2.6328125 2.890625 C3.48563453 6.97875601 4.27121668 10.79614144 4 15 C1.44524126 12.44524126 1.16545702 10.42838262 0.3125 6.9375 C0.04050781 5.85339844 -0.23148437 4.76929688 -0.51171875 3.65234375 C-0.67285156 2.77707031 -0.83398438 1.90179688 -1 1 C-0.67 0.67 -0.34 0.34 0 0 Z " fill="#437BB5" transform="translate(119,348)"/>
<path d="M0 0 C0.33 0 0.66 0 1 0 C1.13277344 0.78246094 1.26554688 1.56492187 1.40234375 2.37109375 C1.57894531 3.38300781 1.75554687 4.39492188 1.9375 5.4375 C2.11152344 6.44683594 2.28554687 7.45617187 2.46484375 8.49609375 C2.74751097 10.9287438 2.74751097 10.9287438 4 12 C4.04080783 13.99958364 4.04254356 16.00045254 4 18 C0.72654007 14.72654007 0.11946928 10.2027148 -0.125 5.6953125 C-0.125 3.79641781 -0.06777446 1.89768482 0 0 Z " fill="#D4EFFA" transform="translate(215,350)"/>
<path d="M0 0 C0.33 0 0.66 0 1 0 C0.9131724 2.12577907 0.8050049 4.25069581 0.6875 6.375 C0.62949219 7.55835938 0.57148437 8.74171875 0.51171875 9.9609375 C0.34285156 10.96382812 0.17398438 11.96671875 0 13 C-0.99 13.66 -1.98 14.32 -3 15 C-2.44854729 9.76119922 -1.57077907 5.02649303 0 0 Z " fill="#D6EEFB" transform="translate(83,240)"/>
<path d="M0 0 C0.66 0.33 1.32 0.66 2 1 C-1.51822249 5.43601966 -5.75390186 6.52033129 -11 8 C-8.83385197 5.69125289 -6.60793392 3.94709819 -3.9375 2.25 C-2.89916016 1.57710938 -2.89916016 1.57710938 -1.83984375 0.890625 C-1.23269531 0.59671875 -0.62554687 0.3028125 0 0 Z " fill="#DEF2FB" transform="translate(188,107)"/>
<path d="M0 0 C0.33 0 0.66 0 1 0 C0.67 2.31 0.34 4.62 0 7 C0.66 7 1.32 7 2 7 C1.34 8.65 0.68 10.3 0 12 C-0.99 12 -1.98 12 -3 12 C-2.01 8.04 -1.02 4.08 0 0 Z " fill="#DAF2FA" transform="translate(342,356)"/>
<path d="M0 0 C1.98 0 3.96 0 6 0 C5.67 2.31 5.34 4.62 5 7 C1.125 2.25 1.125 2.25 0 0 Z " fill="#3279BB" transform="translate(362,216)"/>
<path d="M0 0 C0 2.71929057 -0.05620165 4.4832044 -1 7 C-3.0625 8.75 -3.0625 8.75 -5 10 C-5 4.69520066 -3.4637943 3.81017373 0 0 Z " fill="#417FC4" transform="translate(154,185)"/>
<path d="M0 0 C-1.12073862 0.83905565 -2.24674547 1.67107831 -3.375 2.5 C-4.00148438 2.9640625 -4.62796875 3.428125 -5.2734375 3.90625 C-7 5 -7 5 -9 5 C-8.875 3.125 -8.875 3.125 -8 1 C-2.71910112 -1.35955056 -2.71910112 -1.35955056 0 0 Z " fill="#3679BB" transform="translate(406,458)"/>
<path d="M0 0 C4.29 1.65 8.58 3.3 13 5 C12.01 5.33 11.02 5.66 10 6 C9.34 5.67 8.68 5.34 8 5 C7.67 5.66 7.34 6.32 7 7 C6.67 6.34 6.34 5.68 6 5 C5.01 4.67 4.02 4.34 3 4 C3 3.34 3 2.68 3 2 C2.01 2 1.02 2 0 2 C0 1.34 0 0.68 0 0 Z " fill="#427BBD" transform="translate(250,405)"/>
<path d="M0 0 C0 0.66 0 1.32 0 2 C0.99 2.33 1.98 2.66 3 3 C0.09905209 4.45047396 -1.55972596 3.45356803 -4.625 2.5625 C-5.62789063 2.27503906 -6.63078125 1.98757812 -7.6640625 1.69140625 C-8.43492187 1.46324219 -9.20578125 1.23507813 -10 1 C-10 0.67 -10 0.34 -10 0 C-2.25 -1.125 -2.25 -1.125 0 0 Z " fill="#D6F1FA" transform="translate(316,221)"/>
<path d="M0 0 C0.66 0.66 1.32 1.32 2 2 C1.875 4 1.875 4 1 6 C-1.0625 7.25 -1.0625 7.25 -3 8 C-3 6.68 -3 5.36 -3 4 C-2.34 4 -1.68 4 -1 4 C-0.67 2.68 -0.34 1.36 0 0 Z " fill="#3978C3" transform="translate(421,440)"/>
<path d="M0 0 C2 0 2 0 4 1.75 C5.81653474 3.79360159 6.93136413 5.5065163 8 8 C7.34 8.66 6.68 9.32 6 10 C4.99723227 8.52270825 3.99785546 7.04311423 3 5.5625 C2.443125 4.73878906 1.88625 3.91507812 1.3125 3.06640625 C0 1 0 1 0 0 Z " fill="#E5F7FA" transform="translate(224,380)"/>
<path d="M0 0 C0.33 0 0.66 0 1 0 C1.17835515 4.54805635 0.99785435 7.8794254 -1 12 C-1.66 12 -2.32 12 -3 12 C-2.01 8.04 -1.02 4.08 0 0 Z " fill="#E1F4FB" transform="translate(480,354)"/>
<path d="M0 0 C0.66 0 1.32 0 2 0 C1.67 1.65 1.34 3.3 1 5 C-0.32 5.33 -1.64 5.66 -3 6 C-3 6.66 -3 7.32 -3 8 C-3.66 7.67 -4.32 7.34 -5 7 C-4.21654285 5.82780457 -3.42297164 4.66236332 -2.625 3.5 C-2.18414062 2.8503125 -1.74328125 2.200625 -1.2890625 1.53125 C-0.65097656 0.77328125 -0.65097656 0.77328125 0 0 Z " fill="#4685C2" transform="translate(266,230)"/>
<path d="M0 0 C0 0.66 0 1.32 0 2 C-1.65 2.33 -3.3 2.66 -5 3 C-5 3.66 -5 4.32 -5 5 C-6.98 5 -8.96 5 -11 5 C-7.72709962 2.33319229 -4.35126896 0 0 0 Z " fill="#3D7BB8" transform="translate(399,506)"/>
<path d="M0 0 C-0.33 1.32 -0.66 2.64 -1 4 C-3.64 4.33 -6.28 4.66 -9 5 C-2.87096774 0 -2.87096774 0 0 0 Z " fill="#3779BB" transform="translate(414,498)"/>
<path d="M0 0 C0.99 0 1.98 0 3 0 C1.68775452 3.93673644 0.08089673 6.22719294 -3 9 C-3 8.01 -3 7.02 -3 6 C-2.34 6 -1.68 6 -1 6 C-1.0309375 4.7934375 -1.0309375 4.7934375 -1.0625 3.5625 C-1 1 -1 1 0 0 Z " fill="#387BB8" transform="translate(460,395)"/>
<path d="M0 0 C0.33 0 0.66 0 1 0 C1 2.97 1 5.94 1 9 C-0.32 9.33 -1.64 9.66 -3 10 C-2.01 6.7 -1.02 3.4 0 0 Z " fill="#3F7DB9" transform="translate(125,234)"/>
<path d="M0 0 C0 0.99 0 1.98 0 3 C-3.3 3.33 -6.6 3.66 -10 4 C-4.66666667 0 -4.66666667 0 0 0 Z " fill="#4780BF" transform="translate(232,129)"/>
<path d="M0 0 C-3.3 1.32 -6.6 2.64 -10 4 C-10.33 3.34 -10.66 2.68 -11 2 C-10.34 2 -9.68 2 -9 2 C-9 1.34 -9 0.68 -9 0 C-3.375 -1.125 -3.375 -1.125 0 0 Z " fill="#467DBD" transform="translate(222,92)"/>
<path d="M0 0 C0.66 0.66 1.32 1.32 2 2 C0.02 4.31 -1.96 6.62 -4 9 C-4.66 8.67 -5.32 8.34 -6 8 C-4.02 5.36 -2.04 2.72 0 0 Z " fill="#DDEDF9" transform="translate(449,416)"/>
<path d="M0 0 C0.33 1.32 0.66 2.64 1 4 C-2.13498292 5.85776765 -4.37471432 6.20140476 -8 6 C-5.33333333 4 -2.66666667 2 0 0 Z " fill="#DFF4FD" transform="translate(331,375)"/>
<path d="M0 0 C0.33 0 0.66 0 1 0 C1.33 3.96 1.66 7.92 2 12 C1.67 11.34 1.34 10.68 1 10 C0.01 9.67 -0.98 9.34 -2 9 C-1.34 6.03 -0.68 3.06 0 0 Z " fill="#407DBC" transform="translate(484,270)"/>
<path d="M0 0 C1.39746302 4.19238905 -0.15968125 6.10701803 -2 10 C-2.33 10.66 -2.66 11.32 -3 12 C-3.66 11.67 -4.32 11.34 -5 11 C-3.35 7.37 -1.7 3.74 0 0 Z " fill="#497FBA" transform="translate(131,221)"/>
<path d="M0 0 C0 0.66 0 1.32 0 2 C-0.66 2 -1.32 2 -2 2 C-2 2.66 -2 3.32 -2 4 C-4.64 4.33 -7.28 4.66 -10 5 C-3.63636364 0 -3.63636364 0 0 0 Z " fill="#E8F8FE" transform="translate(206,99)"/>
<path d="M0 0 C0 3 0 3 -1.5 4.6875 C-1.995 5.120625 -2.49 5.55375 -3 6 C-2.67 6.66 -2.34 7.32 -2 8 C-3.65 7.67 -5.3 7.34 -7 7 C-4.66666667 4.66666667 -2.33333333 2.33333333 0 0 Z " fill="#E1F5FC" transform="translate(418,448)"/>
<path d="M0 0 C1.32 0.33 2.64 0.66 4 1 C4 1.99 4 2.98 4 4 C4.99 4.33 5.98 4.66 7 5 C6.67 5.99 6.34 6.98 6 8 C4.9970458 6.85675161 3.99770973 5.71032809 3 4.5625 C2.443125 3.92441406 1.88625 3.28632813 1.3125 2.62890625 C0 1 0 1 0 0 Z " fill="#3E79BB" transform="translate(154,420)"/>
<path d="M0 0 C2.64465038 3.1254959 3.84414715 6.08788267 5 10 C3.0625 9.5 3.0625 9.5 1 8 C0.31209578 5.30341548 0.18053536 2.7982981 0 0 Z " fill="#427FBC" transform="translate(95,398)"/>
<path d="M0 0 C1.29640378 0.59393382 2.58698839 1.20057989 3.875 1.8125 C4.59429687 2.14894531 5.31359375 2.48539062 6.0546875 2.83203125 C8 4 8 4 10 7 C6.12697862 5.85569823 2.99736561 4.76679902 0 2 C0 1.34 0 0.68 0 0 Z " fill="#437CB8" transform="translate(325,324)"/>
<path d="M0 0 C0.66 0 1.32 0 2 0 C1.67 1.65 1.34 3.3 1 5 C-0.65 5.33 -2.3 5.66 -4 6 C-2.7260411 3.96166576 -1.38938077 1.96147874 0 0 Z " fill="#2577BB" transform="translate(78,98)"/>
<path d="M0 0 C0.66 0 1.32 0 2 0 C1.67 1.65 1.34 3.3 1 5 C-0.65 5.33 -2.3 5.66 -4 6 C-2.7260411 3.96166576 -1.38938077 1.96147874 0 0 Z " fill="#2577BB" transform="translate(86,90)"/>
<path d="M0 0 C0.66 0 1.32 0 2 0 C1.67 1.65 1.34 3.3 1 5 C-0.65 5.33 -2.3 5.66 -4 6 C-2.7260411 3.96166576 -1.38938077 1.96147874 0 0 Z " fill="#2577BB" transform="translate(94,82)"/>
<path d="M0 0 C0.66 0 1.32 0 2 0 C1.67 1.65 1.34 3.3 1 5 C-0.65 5.33 -2.3 5.66 -4 6 C-2.7260411 3.96166576 -1.38938077 1.96147874 0 0 Z " fill="#2577BB" transform="translate(102,74)"/>
<path d="M0 0 C0 0.66 0 1.32 0 2 C-1.98 2.99 -3.96 3.98 -6 5 C-6 4.34 -6 3.68 -6 3 C-7.32 2.67 -8.64 2.34 -10 2 C-8.7090864 1.66376204 -7.41723903 1.33110751 -6.125 1 C-5.40570313 0.814375 -4.68640625 0.62875 -3.9453125 0.4375 C-2 0 -2 0 0 0 Z " fill="#4F86C3" transform="translate(332,411)"/>
<path d="M0 0 C1.65 0 3.3 0 5 0 C6.125 3.75 6.125 3.75 5 6 C3.35 4.02 1.7 2.04 0 0 Z " fill="#D0EBF9" transform="translate(426,164)"/>
<path d="M0 0 C0.99 0.33 1.98 0.66 3 1 C0.59563974 4.60654039 -0.94679607 4.85452932 -5 6 C-3.35 4.02 -1.7 2.04 0 0 Z " fill="#DCEBFA" transform="translate(427,440)"/>
<path d="M0 0 C3.96 1.98 3.96 1.98 8 4 C4.29847322 4.92538169 3.36541838 5.08174162 0 4 C0 2.68 0 1.36 0 0 Z " fill="#417FC0" transform="translate(242,400)"/>
<path d="M0 0 C1.98 0.99 1.98 0.99 4 2 C4 4.31 4 6.62 4 9 C2.00902154 6.01353231 1.05875074 3.40312738 0 0 Z " fill="#DFF5FD" transform="translate(472,228)"/>
<path d="M0 0 C2.64 1.98 5.28 3.96 8 6 C7.01 6.33 6.02 6.66 5 7 C5 6.34 5 5.68 5 5 C2.525 4.01 2.525 4.01 0 3 C0 2.01 0 1.02 0 0 Z " fill="#3F7BB8" transform="translate(411,152)"/>
<path d="M0 0 C2.97 1.65 5.94 3.3 9 5 C8.01 5.66 7.02 6.32 6 7 C5.67 6.01 5.34 5.02 5 4 C4.01 4 3.02 4 2 4 C2 3.34 2 2.68 2 2 C1.34 2 0.68 2 0 2 C0 1.34 0 0.68 0 0 Z " fill="#3B7CBB" transform="translate(394,141)"/>
<path d="M0 0 C2.5 2.3125 2.5 2.3125 5 5 C5 5.99 5 6.98 5 8 C4.67 7.34 4.34 6.68 4 6 C3.01 6 2.02 6 1 6 C0.67 4.02 0.34 2.04 0 0 Z " fill="#2E71BE" transform="translate(513,88)"/>
</svg>
